# Blender v2.79 (sub 0) OBJ File: 'stupid test.blend'
# www.blender.org
mtllib stupid test.mtl
o Cube
v 1.000000 -1.000000 -1.000000
v 1.000000 -1.000000 1.000000
v -1.000000 -1.000000 1.000000
v -1.000000 -1.000000 -1.000000
v 1.000000 1.000000 -0.999999
v 0.999999 1.000000 1.000001
v -1.000000 1.000000 1.000000
v -1.000000 1.000000 -1.000000
v 0.999999 -1.000000 3.000000
v -1.000001 -1.000000 3.000000
v 0.999999 1.000000 3.000000
v -1.000001 1.000000 3.000000
v 1.000000 -1.000000 -3.000000
v -0.999999 -1.000000 -3.000000
v 1.000001 1.000000 -3.000000
v -0.999999 1.000000 -3.000000
v 1.000001 -0.999999 -5.000000
v -0.999999 -0.999999 -5.000000
v 1.000001 1.000001 -5.000000
v -0.999999 1.000001 -5.000000
v 0.999999 -1.000000 5.000000
v -1.000001 -1.000000 5.000000
v 0.999998 1.000000 5.000000
v -1.000002 1.000000 5.000000
v 0.999999 3.000000 3.000001
v -1.000001 3.000000 3.000000
v 1.000001 3.000000 -2.999999
v -0.999999 3.000000 -3.000000
v 1.000001 3.000001 -4.999999
v -0.999999 3.000001 -5.000000
v 0.999998 3.000000 5.000001
v -1.000002 3.000000 5.000000
v 0.999999 5.000000 3.000001
v -1.000001 5.000000 3.000000
v 1.000001 5.000000 -2.999999
v -0.999999 5.000000 -3.000000
v 1.000001 5.000001 -4.999999
v -0.999999 5.000001 -4.999999
v 0.999998 5.000000 5.000001
v -1.000002 5.000000 5.000000
v 0.999999 7.000000 3.000001
v -1.000001 7.000000 3.000000
v 1.000001 7.000000 -2.999999
v -0.999999 7.000000 -2.999999
v 1.000001 7.000001 -4.999998
v -0.999999 7.000001 -4.999999
v 0.999998 7.000000 5.000002
v -1.000002 7.000000 5.000001
v 0.999999 9.000000 3.000002
v -1.000001 9.000000 3.000001
v 1.000001 9.000000 -2.999998
v -0.999999 9.000000 -2.999999
v 1.000001 9.000001 -4.999998
v -0.999999 9.000001 -4.999998
v 0.999998 9.000000 5.000002
v -1.000002 9.000000 5.000001
v 1.000000 7.000000 1.000001
v -1.000000 7.000000 1.000000
v 1.000000 9.000000 1.000002
v -1.000000 9.000000 1.000001
v 1.000000 7.000000 -0.999999
v -1.000000 7.000000 -0.999999
v 1.000000 8.999999 -0.999998
v -1.000000 8.999999 -0.999999
vn 0.0000 -1.0000 0.0000
vn 0.0000 1.0000 0.0000
vn 1.0000 -0.0000 0.0000
vn -1.0000 -0.0000 -0.0000
vn 0.0000 0.0000 -1.0000
vn 0.0000 -0.0000 1.0000
usemtl Material
s off
f 2//1 4//1 1//1
f 8//2 6//2 5//2
f 5//3 2//3 1//3
f 2//1 10//1 3//1
f 3//4 8//4 4//4
f 1//1 14//1 13//1
f 10//4 24//4 12//4
f 6//2 12//2 11//2
f 3//4 12//4 7//4
f 6//3 9//3 2//3
f 23//3 25//3 31//3
f 1//3 15//3 5//3
f 5//2 16//2 8//2
f 8//4 14//4 4//4
f 17//5 20//5 19//5
f 13//3 19//3 15//3
f 16//4 18//4 14//4
f 14//1 17//1 13//1
f 23//6 22//6 21//6
f 9//1 22//1 10//1
f 15//6 28//6 16//6
f 11//3 21//3 9//3
f 29//3 35//3 27//3
f 31//6 40//6 32//6
f 19//3 27//3 15//3
f 24//4 26//4 12//4
f 23//6 32//6 24//6
f 12//5 25//5 11//5
f 16//4 30//4 20//4
f 20//5 29//5 19//5
f 33//3 47//3 39//3
f 34//5 41//5 33//5
f 27//6 36//6 28//6
f 26//4 40//4 34//4
f 30//4 36//4 38//4
f 30//5 37//5 29//5
f 26//5 33//5 25//5
f 25//3 39//3 31//3
f 46//4 52//4 54//4
f 48//4 50//4 42//4
f 39//6 48//6 40//6
f 37//3 43//3 35//3
f 35//6 44//6 36//6
f 40//4 42//4 34//4
f 36//4 46//4 38//4
f 38//5 45//5 37//5
f 51//2 54//2 52//2
f 50//2 55//2 49//2
f 46//5 53//5 45//5
f 42//1 57//1 41//1
f 41//3 55//3 47//3
f 47//6 56//6 48//6
f 45//3 51//3 43//3
f 52//2 63//2 51//2
f 63//2 60//2 59//2
f 41//3 59//3 49//3
f 49//2 60//2 50//2
f 42//4 60//4 58//4
f 57//3 63//3 59//3
f 44//4 64//4 52//4
f 51//3 61//3 43//3
f 43//1 62//1 44//1
f 64//4 58//4 60//4
f 58//1 61//1 57//1
f 2//1 3//1 4//1
f 8//2 7//2 6//2
f 5//3 6//3 2//3
f 2//1 9//1 10//1
f 3//4 7//4 8//4
f 1//1 4//1 14//1
f 10//4 22//4 24//4
f 6//2 7//2 12//2
f 3//4 10//4 12//4
f 6//3 11//3 9//3
f 23//3 11//3 25//3
f 1//3 13//3 15//3
f 5//2 15//2 16//2
f 8//4 16//4 14//4
f 17//5 18//5 20//5
f 13//3 17//3 19//3
f 16//4 20//4 18//4
f 14//1 18//1 17//1
f 23//6 24//6 22//6
f 9//1 21//1 22//1
f 15//6 27//6 28//6
f 11//3 23//3 21//3
f 29//3 37//3 35//3
f 31//6 39//6 40//6
f 19//3 29//3 27//3
f 24//4 32//4 26//4
f 23//6 31//6 32//6
f 12//5 26//5 25//5
f 16//4 28//4 30//4
f 20//5 30//5 29//5
f 33//3 41//3 47//3
f 34//5 42//5 41//5
f 27//6 35//6 36//6
f 26//4 32//4 40//4
f 30//4 28//4 36//4
f 30//5 38//5 37//5
f 26//5 34//5 33//5
f 25//3 33//3 39//3
f 46//4 44//4 52//4
f 48//4 56//4 50//4
f 39//6 47//6 48//6
f 37//3 45//3 43//3
f 35//6 43//6 44//6
f 40//4 48//4 42//4
f 36//4 44//4 46//4
f 38//5 46//5 45//5
f 51//2 53//2 54//2
f 50//2 56//2 55//2
f 46//5 54//5 53//5
f 42//1 58//1 57//1
f 41//3 49//3 55//3
f 47//6 55//6 56//6
f 45//3 53//3 51//3
f 52//2 64//2 63//2
f 63//2 64//2 60//2
f 41//3 57//3 59//3
f 49//2 59//2 60//2
f 42//4 50//4 60//4
f 57//3 61//3 63//3
f 44//4 62//4 64//4
f 51//3 63//3 61//3
f 43//1 61//1 62//1
f 64//4 62//4 58//4
f 58//1 62//1 61//1
